<?xml version="1.0" encoding="UTF-8"?>
<svg id="Layer_1" data-name="Layer 1" xmlns="http://www.w3.org/2000/svg" viewBox="0 0 1491.31 800">
  <path d="M472.52,800h122.52c112.5,0,204.95-92.45,204.95-204.95V204.95C800,92.45,707.55,0,595.05,0h-125C467.57,0,464.97,2.47,464.97,4.95V795.05c0,2.48,2.48,4.95,7.55,4.95Zm152.48-439.97c45.05,0,79.95,37.5,79.95,79.95,0,45.05-37.5,79.95-79.95,79.95-45.05,0-79.95-34.9-79.95-79.95-2.6-44.92,34.9-79.95,79.95-79.95h0ZM379.95,0H204.95C92.45,0,0,92.45,0,204.95v390.1c0,112.5,92.45,204.95,204.95,204.95h175c2.47,0,5.08-2.48,5.08-4.95V4.95C385.03,2.47,382.55,0,379.95,0Zm-57.42,735.02h-117.58c-77.47,0-139.97-62.5-139.97-139.98V204.95c0-77.47,62.5-139.97,139.97-139.97h115.1l2.47,670.05ZM125,239.97c0,42.45,32.55,75,75,75s75-32.55,75-75-32.55-75-75-75-75,32.55-75,75Z"/>
  <path d="M1205.14,634.17c3.87,0,7.74,0,11.61,0,87.13,0,174.27,.19,261.4-.25,10.5-.05,13.29,2.76,13.16,13.4-.58,47.36-.44,94.74-.08,142.11,.06,8.24-2.3,10.58-10.39,10.57-185.48-.21-370.95-.21-556.42,0-8.02,0-10.51-2.19-10.42-10.5,.41-38.92,.33-77.85,.04-116.77-.05-6.66,2.51-10.6,7.29-14.72,101.94-87.95,203.8-175.99,305.52-264.21,20.71-17.96,38.7-38.54,53.48-61.88,38.13-60.2,7.58-137.13-61-153.81-51.2-12.45-96.58,2.82-138.82,30.87-27.9,18.53-51.61,42.55-76.84,64.51-7.58,6.59-11.42,6.06-17.9-1.26-31.18-35.21-62.93-69.91-94.51-104.76-3.47-3.83-7.11-6.7-1.76-12.58,49.56-54.52,104.95-100.99,173.02-129.97,121.17-51.6,260-21.29,343.86,74.88,83.72,96,87.3,227.41,8.1,329.04-41.21,52.88-90.09,98.3-139.83,142.67-21.72,19.37-44.34,37.72-66.6,56.47-1.38,1.16-3.18,1.8-4.79,2.68,.63,1.18,1.26,2.36,1.89,3.54Z"/>
</svg>